<?xml version="1.0" encoding="UTF-8" standalone="no"?><!DOCTYPE svg PUBLIC "-//W3C//DTD SVG 1.1//EN" "http://www.w3.org/Graphics/SVG/1.1/DTD/svg11.dtd"><svg width="100%" height="100%" viewBox="0 0 1481 1308" version="1.1" xmlns="http://www.w3.org/2000/svg" xmlns:xlink="http://www.w3.org/1999/xlink" xml:space="preserve" xmlns:serif="http://www.serif.com/" style="fill-rule:evenodd;clip-rule:evenodd;stroke-linejoin:round;stroke-miterlimit:2;"><path d="M1480.26,167.925c-0,-92.68 -75.245,-167.925 -167.925,-167.925l-1144.41,0c-92.68,0 -167.925,75.245 -167.925,167.925l0,971.38c0,92.68 75.245,167.925 167.925,167.925l1144.41,0c92.68,0 167.925,-75.245 167.925,-167.925l-0,-971.38Z" style="fill:#1e1e1e;"/><path d="M1030.38,254.317c93.394,-39.14 186.887,74.135 191.303,175.303c4.416,101.167 -74.135,186.888 -175.303,191.303c-101.167,4.416 -209.859,-75.753 -191.303,-175.302c13.95,-74.84 95.152,-157.714 175.303,-191.304Z" style="fill:#2edb6d;fill-opacity:0.57;"/><path d="M1032.02,295.326c69.892,-35.454 144.636,57.374 148.053,135.67c3.417,78.295 -57.374,144.635 -135.67,148.053c-78.295,3.417 -166.792,-59.573 -148.053,-135.67c13.137,-53.348 75.467,-117.514 135.67,-148.053Z" style="fill:#2edb6d;"/><path d="M447.613,253.939c-93.394,-39.14 -186.888,74.135 -191.304,175.303c-4.415,101.167 74.135,186.888 175.303,191.303c101.168,4.416 209.859,-75.753 191.303,-175.302c-13.949,-74.84 -95.152,-157.714 -175.302,-191.304Z" style="fill:#2edb6d;fill-opacity:0.57;"/><path d="M445.974,294.948c-69.891,-35.455 -144.635,57.374 -148.053,135.67c-3.417,78.295 57.375,144.635 135.67,148.053c78.296,3.417 166.792,-59.573 148.053,-135.67c-13.137,-53.348 -75.466,-117.514 -135.67,-148.053Z" style="fill:#2edb6d;"/><ellipse cx="440.984" cy="454.988" rx="16.242" ry="65.761" style="fill:#1e1e1e;"/><ellipse cx="1037.01" cy="454.988" rx="16.242" ry="65.761" style="fill:#1e1e1e;"/><g><path d="M282.653,1060.77c-8.497,-0 -16.311,-1.973 -23.443,-5.918c-7.131,-3.945 -13.277,-9.256 -18.435,-15.932c-4.553,-6.373 -8.649,-14.491 -12.291,-24.353c-3.642,-9.863 -6.373,-20.105 -8.194,-30.727c-3.641,-17.904 -6.069,-41.423 -7.283,-70.556c-0.303,-6.98 -0.455,-18.967 -0.455,-35.961l-0,-28.678c0.303,-8.193 0.455,-16.69 0.455,-25.491c0,-17.904 1.062,-32.016 3.187,-42.334c-0.911,-4.552 -1.366,-9.255 -1.366,-14.111c0,-18.208 6.828,-32.926 20.484,-44.154c13.656,-11.229 30.954,-16.843 51.893,-16.843c7.89,0 15.174,2.124 21.85,6.373c6.676,4.248 10.014,9.559 10.014,15.932c0,3.035 -1.214,5.462 -3.641,7.283c-2.428,1.821 -5.463,2.731 -9.104,2.731c-3.035,0 -6.297,-0.455 -9.787,-1.365c-3.49,-0.911 -5.69,-2.276 -6.601,-4.097l-5.917,0l-0,-0.91c-11.229,-0 -20.636,2.427 -28.223,7.283c-5.462,3.945 -9.711,10.469 -12.745,19.574c-1.214,3.338 -2.125,7.586 -2.732,12.745c-0.607,5.159 -0.91,9.863 -0.91,14.111c-0.304,2.428 -0.455,7.284 -0.455,14.567l0.91,15.932l0.455,15.477c0,4.552 -0.607,9.863 -1.82,15.932c-1.518,7.587 -2.277,12.897 -2.277,15.932l0,10.925c0,11.835 0.456,28.071 1.366,48.706c0.304,17.298 2.276,34.596 5.918,51.893c2.731,16.084 7.89,29.74 15.477,40.969c7.283,11.531 17.146,17.297 29.588,17.297c5.159,0 11.531,-2.731 19.118,-8.193c8.194,-5.463 13.96,-8.194 17.298,-8.194c4.248,-0 8.649,2.276 13.201,6.828c-0,11.228 -4.249,19.877 -12.746,25.947c-7.89,5.462 -17.298,8.952 -28.222,10.469c-6.07,0.607 -10.925,0.911 -14.567,0.911Z" style="fill:#fff;fill-opacity:0.87;fill-rule:nonzero;"/><path d="M453.354,1061.22c-6.676,-0 -12.746,-7.283 -18.208,-21.85c-6.373,-15.78 -11.077,-32.016 -14.112,-48.707l-3.186,-15.476c-8.801,-43.396 -14.415,-68.129 -16.842,-74.198l-5.463,-0c0,8.8 -0.152,16.842 -0.455,24.125l-0,25.037c-0,40.664 2.883,72.377 8.649,95.137l-5.007,12.29l-12.746,0l-5.918,-6.828l0.455,-30.498c0,-27.313 -1.365,-68.736 -4.096,-124.271c-2.428,-59.176 -3.642,-100.599 -3.642,-124.27c0,-14.566 5.007,-21.849 15.022,-21.849c16.387,-0 29.815,4.248 40.285,12.745c10.47,8.497 15.705,20.333 15.705,35.506l-0,31.864c-0,4.552 -0.759,9.787 -2.276,15.705c-1.518,5.917 -3.187,10.697 -5.008,14.339l-8.649,16.387l-7.283,13.656l2.276,10.925l6.373,32.319c4.249,23.367 8.345,42.334 12.291,56.9c3.945,14.567 8.8,27.768 14.566,39.603l2.731,5.462c3.035,6.07 4.552,10.925 4.552,14.567c0,3.034 -0.91,5.69 -2.731,7.966c-1.821,2.276 -4.249,3.414 -7.283,3.414Zm-55.99,-182.536c6.676,-3.338 12.366,-12.518 17.07,-27.54c4.704,-15.022 7.056,-28.905 7.056,-41.651c-0,-9.711 -1.214,-18.815 -3.642,-27.312c-1.517,-4.855 -4.021,-8.573 -7.511,-11.152c-3.49,-2.58 -7.814,-3.87 -12.973,-3.87l-0.91,2.276l-0.911,4.097l0.911,53.714c0.606,15.78 0.91,32.926 0.91,51.438Z" style="fill:#fff;fill-opacity:0.87;fill-rule:nonzero;"/><path d="M528.917,1059.4c-3.945,-0 -7.511,-1.366 -10.697,-4.097c-3.186,-2.731 -4.931,-6.069 -5.235,-10.014l0,-20.94c-0.303,-2.731 -0.455,-5.917 -0.455,-9.559c0,-6.373 -0.455,-16.084 -1.366,-29.133l-0.91,-29.133c0,-14.87 0.455,-37.023 1.366,-66.459c1.214,-26.402 1.82,-48.555 1.82,-66.46c0,-4.248 -0.455,-10.621 -1.365,-19.118c-0.911,-8.801 -1.366,-15.173 -1.366,-19.119c0,-21.546 6.373,-32.319 19.119,-32.319c10.014,0 21.622,1.973 34.823,5.918c13.201,3.945 19.801,8.649 19.801,14.111c-0,3.035 -1.29,5.842 -3.869,8.421c-2.58,2.58 -5.69,4.628 -9.332,6.145c-12.746,-4.552 -24.277,-7.586 -34.595,-9.104c0.303,4.552 0.455,11.077 0.455,19.574c-0,12.139 -0.152,23.064 -0.455,32.775c-0.911,14.566 -1.366,25.491 -1.366,32.774l1.366,7.283l7.283,-0.455c2.428,-0.303 5.462,-0.455 9.104,-0.455c14.566,-0 21.85,4.249 21.85,12.746c-0,3.338 -1.366,6.145 -4.097,8.421c-2.731,2.276 -6.221,3.414 -10.47,3.414c-5.462,-0 -9.711,-0.304 -12.745,-0.911l-11.38,0c0.606,7.891 0.91,19.422 0.91,34.596c-0,15.173 -0.152,28.829 -0.455,40.968c-0.911,18.512 -1.366,32.319 -1.366,41.423c0,16.995 0.304,25.492 0.911,25.492l15.021,-0.456c5.159,-0.303 11.38,-0.455 18.663,-0.455c11.532,0 17.298,3.642 17.298,10.925c0,4.249 -1.897,7.511 -5.69,9.787c-3.793,2.276 -8.421,3.414 -13.884,3.414l-38.692,-0Z" style="fill:#fff;fill-opacity:0.87;fill-rule:nonzero;"/><path d="M726.93,1057.58c-6.98,0 -12.139,-1.062 -15.477,-3.186c-3.338,-2.125 -5.007,-6.07 -5.007,-11.836c0,-9.104 -1.517,-24.58 -4.552,-46.43l-1.821,-9.559l-45.065,-6.828c-1.821,6.979 -4.4,21.091 -7.738,42.333c-1.821,14.87 -4.704,24.733 -8.649,29.589c-2.124,2.731 -5.159,4.096 -9.104,4.096c-3.642,0 -6.98,-1.138 -10.015,-3.414c-3.034,-2.276 -4.552,-5.083 -4.552,-8.421l0.911,-2.276l0.455,-1.821c20.029,-77.991 35.202,-154.92 45.52,-230.787c0,-1.214 0.152,-3.262 0.455,-6.145c0.304,-2.883 0.607,-7.056 0.911,-12.518c0.91,-11.229 1.897,-20.181 2.959,-26.857c1.062,-6.677 2.807,-11.684 5.235,-15.022l15.476,0c4.249,0 7.891,0.986 10.925,2.959c3.035,1.972 4.552,4.779 4.552,8.421c0,23.064 3.187,57.356 9.559,102.876c6.07,46.734 9.105,79.508 9.105,98.323c-0,1.821 0.758,6.525 2.276,14.112c1.517,6.979 2.276,11.531 2.276,13.656c-0,2.124 1.517,11.228 4.552,27.312c2.731,14.566 4.096,23.974 4.096,28.222l0,0.456c0,6.676 -2.427,10.924 -7.283,12.745Zm-30.043,-87.399c-0.911,-4.552 -1.366,-10.166 -1.366,-16.842c0,-27.312 -2.428,-62.211 -7.283,-104.697l-4.552,-47.341c-13.049,71.315 -22.001,125.181 -26.857,161.597c4.552,3.035 17.905,5.463 40.058,7.283Z" style="fill:#fff;fill-opacity:0.87;fill-rule:nonzero;"/><path d="M798.852,1046.2l-0.455,-17.753c-0.304,-5.159 -0.455,-10.925 -0.455,-17.297l0.455,-15.477c-0.911,-3.338 -3.187,-36.568 -6.828,-99.69c-3.642,-63.121 -5.766,-103.634 -6.373,-121.538c-17.601,-0.607 -28.829,-2.428 -33.685,-5.463c-3.338,-2.428 -5.007,-5.159 -5.007,-8.193c-0,-2.428 1.593,-4.628 4.779,-6.601c3.187,-1.972 6.449,-2.959 9.787,-2.959c8.497,0 18.815,0.607 30.954,1.821c11.532,1.517 21.85,2.276 30.954,2.276l7.283,0c9.407,0 14.111,3.642 14.111,10.925c0,3.642 -1.517,6.6 -4.552,8.876c-3.034,2.276 -6.524,3.414 -10.469,3.414c-2.732,0 -6.677,-0.455 -11.836,-1.365l-9.104,-1.821l-0.91,4.552c-0,27.009 2.579,70.101 7.738,129.277c4.856,55.535 7.284,98.627 7.284,129.278c-0,3.641 -1.594,6.828 -4.78,9.559c-3.186,2.731 -6.752,4.097 -10.697,4.097l-8.194,-5.918Z" style="fill:#fff;fill-opacity:0.87;fill-rule:nonzero;"/><path d="M938.599,1060.31c-7.283,0 -13.808,-1.593 -19.574,-4.779c-5.766,-3.187 -10.469,-7.815 -14.111,-13.884c-7.283,-12.746 -11.987,-27.16 -14.111,-43.244c-2.124,-13.96 -3.187,-30.65 -3.187,-50.072c-0.91,-32.775 -1.365,-72.833 -1.365,-120.174l-0.455,-35.05c-0.304,-1.821 -0.456,-4.856 -0.456,-9.104c-0.607,-11.532 -0.91,-18.512 -0.91,-20.939c2.731,-6.373 5.918,-9.56 9.559,-9.56c3.642,0 6.904,2.731 9.787,8.194c2.883,5.462 4.324,11.38 4.324,17.753l0,123.815c0,12.138 1.063,28.222 3.187,48.251c2.124,24.884 3.186,40.968 3.186,48.252c0,22.456 9.56,33.684 28.678,33.684c21.85,0 32.775,-81.632 32.775,-244.898l-0,-29.588c-0.304,-0.911 -0.456,-2.125 -0.456,-3.642c0,-3.642 0.835,-6.297 2.504,-7.966c1.669,-1.669 4.931,-2.504 9.787,-2.504c3.945,0 7.055,1.138 9.331,3.414c2.276,2.276 3.718,4.932 4.325,7.966c0.303,1.821 0.455,5.311 0.455,10.47c0,4.856 -0.455,12.594 -1.366,23.215c-1.213,8.801 -1.82,16.388 -1.82,22.761c-0,6.979 -0.304,13.2 -0.911,18.663l-0.91,19.118l-0,3.642c0.303,1.214 0.455,2.579 0.455,4.097c0,134.739 -19.574,202.109 -58.721,202.109Z" style="fill:#fff;fill-opacity:0.87;fill-rule:nonzero;"/><path d="M1133.88,1061.22c-6.677,-0 -12.746,-7.283 -18.208,-21.85c-6.373,-15.78 -11.077,-32.016 -14.112,-48.707l-3.186,-15.476c-8.801,-43.396 -14.415,-68.129 -16.843,-74.198l-5.462,-0c-0,8.8 -0.152,16.842 -0.455,24.125l-0,25.037c-0,40.664 2.883,72.377 8.649,95.137l-5.008,12.29l-12.745,0l-5.918,-6.828l0.455,-30.498c0,-27.313 -1.365,-68.736 -4.096,-124.271c-2.428,-59.176 -3.642,-100.599 -3.642,-124.27c-0,-14.566 5.007,-21.849 15.022,-21.849c16.387,-0 29.815,4.248 40.285,12.745c10.47,8.497 15.704,20.333 15.704,35.506l0,31.864c0,4.552 -0.758,9.787 -2.276,15.705c-1.517,5.917 -3.186,10.697 -5.007,14.339l-8.649,16.387l-7.283,13.656l2.276,10.925l6.373,32.319c4.248,23.367 8.345,42.334 12.29,56.9c3.945,14.567 8.801,27.768 14.567,39.603l2.731,5.462c3.035,6.07 4.552,10.925 4.552,14.567c0,3.034 -0.91,5.69 -2.731,7.966c-1.821,2.276 -4.249,3.414 -7.283,3.414Zm-55.99,-182.536c6.676,-3.338 12.366,-12.518 17.07,-27.54c4.704,-15.022 7.056,-28.905 7.056,-41.651c-0,-9.711 -1.214,-18.815 -3.642,-27.312c-1.517,-4.855 -4.021,-8.573 -7.511,-11.152c-3.49,-2.58 -7.814,-3.87 -12.973,-3.87l-0.911,2.276l-0.91,4.097l0.91,53.714c0.607,15.78 0.911,32.926 0.911,51.438Z" style="fill:#fff;fill-opacity:0.87;fill-rule:nonzero;"/><path d="M1209.44,1059.4c-3.945,-0 -7.511,-1.366 -10.697,-4.097c-3.187,-2.731 -4.931,-6.069 -5.235,-10.014l0,-20.94c-0.303,-2.731 -0.455,-5.917 -0.455,-9.559c-0,-6.373 -0.455,-16.084 -1.366,-29.133l-0.91,-29.133c-0,-14.87 0.455,-37.023 1.365,-66.459c1.214,-26.402 1.821,-48.555 1.821,-66.46c0,-4.248 -0.455,-10.621 -1.365,-19.118c-0.911,-8.801 -1.366,-15.173 -1.366,-19.119c0,-21.546 6.373,-32.319 19.119,-32.319c10.014,0 21.622,1.973 34.822,5.918c13.201,3.945 19.802,8.649 19.802,14.111c-0,3.035 -1.29,5.842 -3.869,8.421c-2.58,2.58 -5.69,4.628 -9.332,6.145c-12.746,-4.552 -24.278,-7.586 -34.595,-9.104c0.303,4.552 0.455,11.077 0.455,19.574c-0,12.139 -0.152,23.064 -0.455,32.775c-0.911,14.566 -1.366,25.491 -1.366,32.774l1.366,7.283l7.283,-0.455c2.428,-0.303 5.462,-0.455 9.104,-0.455c14.566,-0 21.85,4.249 21.85,12.746c-0,3.338 -1.366,6.145 -4.097,8.421c-2.731,2.276 -6.221,3.414 -10.47,3.414c-5.462,-0 -9.711,-0.304 -12.746,-0.911l-11.38,0c0.607,7.891 0.911,19.422 0.911,34.596c-0,15.173 -0.152,28.829 -0.455,40.968c-0.911,18.512 -1.366,32.319 -1.366,41.423c-0,16.995 0.303,25.492 0.91,25.492l15.022,-0.456c5.159,-0.303 11.38,-0.455 18.663,-0.455c11.532,0 17.298,3.642 17.298,10.925c-0,4.249 -1.897,7.511 -5.69,9.787c-3.793,2.276 -8.421,3.414 -13.884,3.414l-38.692,-0Z" style="fill:#fff;fill-opacity:0.87;fill-rule:nonzero;"/></g></svg>